<?xml version="1.0" encoding="UTF-8"?>
<svg xmlns="http://www.w3.org/2000/svg" xmlns:xlink="http://www.w3.org/1999/xlink" width="60px" height="55px" viewBox="0 0 53 55" version="1.1">
  <!-- Generator: Sketch 50.2 (55047) - http://www.bohemiancoding.com/sketch -->
  <title>Page 1</title>
  <desc>Created with Sketch.</desc>
  <defs/>
  <g id="Page-1" stroke="none" stroke-width="1" fill="none" fill-rule="evenodd" stroke-linecap="round" stroke-linejoin="round">
    <g id="What-We-Do" transform="translate(-694.000000, -985.000000)" stroke="#162C47" stroke-width="1.8">
      <g id="Page-1" transform="translate(695.000000, 986.000000)">
        <path d="M1.41942989,22.4736842 L2.85458778,22.4736842 L2.85458778,33.3554737 L1.41942989,33.3554737 C0.635640416,33.3554737 0.000377257905,32.7202105 0.000377257905,31.9364211 L0.000377257905,23.9258421 C-0.0175174789,23.1420526 0.603429889,22.4924737 1.38721936,22.4745789 C1.39795621,22.4736842 1.40869305,22.4736842 1.41942989,22.4736842 Z" id="Stroke-1"/>
        <path d="M48.8642632,33.3554737 L47.4210526,33.3554737 L47.4210526,22.4736842 L48.8642632,22.4736842 C49.6453684,22.4781579 50.2752632,23.1125263 50.2752632,23.8927368 L50.2752632,31.9042105 C50.2940526,32.688 49.6722105,33.3366842 48.8884211,33.3554737 L48.8642632,33.3554737 Z" id="Stroke-3"/>
        <path d="M25.0526316,14.481 L25.0526316,9.05263158" id="Stroke-5"/>
        <path d="M28.2300526,5.11457895 C28.2300526,3.39489474 26.8351579,2 25.1154737,2 C23.3948947,2 22,3.39489474 22,5.11457895 C22,6.83515789 23.3948947,8.22915789 25.1154737,8.22915789 C26.8351579,8.22915789 28.2300526,6.83515789 28.2300526,5.11457895 Z" id="Stroke-7"/>
        <path d="M19.9944605,0 C17.1948289,2.80052632 17.1948289,7.33952632 19.9944605,10.1391579" id="Stroke-9"/>
        <path d="M15.0288987,8.01773684 C14.0795829,6.05557895 14.0795829,3.75163158 15.0199513,1.78947368" id="Stroke-11"/>
        <path d="M30.4210526,10.1391579 C33.2206842,7.33952632 33.2206842,2.80052632 30.4210526,0" id="Stroke-13"/>
        <path d="M34.8947368,1.78947368 C35.8440526,3.75163158 35.8440526,6.05557895 34.8947368,8.01773684" id="Stroke-15"/>
        <path d="M37.5386842,14.4210526 L12.2874211,14.4210526 C8.96526316,14.4210526 6.26315789,17.1151053 6.26315789,20.4453158 L6.26315789,35.8508947 C6.26315789,39.1811053 8.96526316,41.8751579 12.2874211,41.8751579 L37.5386842,41.8751579 C40.8688947,41.8751579 43.5620526,39.1811053 43.5620526,35.8508947 L43.5620526,20.4453158 C43.5620526,17.1151053 40.8688947,14.4210526 37.5386842,14.4210526 Z" id="Stroke-17"/>
        <polygon id="Stroke-19" points="2.85458778 29.6602105 6.12447368 29.6602105 6.12447368 26.0526316 2.85458778 26.0526316"/>
        <polygon id="Stroke-21" points="43.8421053 29.6602105 47.2832632 29.6602105 47.2832632 26.0526316 43.8421053 26.0526316"/>
        <polygon id="Stroke-22" points="18.7894737 47.5862632 32.0405263 47.5862632 32.0405263 42.1578947 18.7894737 42.1578947"/>
        <path d="M46.8681053,52.9686842 L46.8681053,50.2137895 C46.8681053,48.7875789 45.7121053,47.6315789 44.2858947,47.6315789 L5.26552632,47.6315789 C3.84021053,47.6315789 2.68421053,48.7875789 2.68421053,50.2137895 L2.68421053,52.9686842" id="Stroke-23"/>
        <g id="Group-5" transform="translate(14.000000, 21.000000)">
          <path d="M21.8796316,3.44026316 C21.8796316,1.54073684 20.3388947,0 18.4393684,0 C16.5389474,0 15,1.54073684 15,3.44026316 C15,5.34068421 16.5389474,6.88142105 18.4393684,6.88142105 C20.3388947,6.88142105 21.8796316,5.34068421 21.8796316,3.44026316 Z" id="Stroke-24"/>
          <path d="M6.88052632,3.44026316 C6.88052632,1.54073684 5.33978947,0 3.44026316,0 C1.53984211,0 0,1.54073684 0,3.44026316 C0,5.34068421 1.53984211,6.88142105 3.44026316,6.88142105 C5.33978947,6.88142105 6.88052632,5.34068421 6.88052632,3.44026316 Z" id="Stroke-25"/>
        </g>
        <path d="M19.6842105,34.1052632 L29.8233684,34.1052632" id="Stroke-26"/>
      </g>
    </g>
  </g>
</svg>
