<?xml version="1.0" encoding="UTF-8"?>
<svg xmlns="http://www.w3.org/2000/svg" xmlns:xlink="http://www.w3.org/1999/xlink" width="60px" height="55px" viewBox="0 0 77 47" version="1.1">
  <!-- Generator: Sketch 50.2 (55047) - http://www.bohemiancoding.com/sketch -->
  <title>Page 1</title>
  <desc>Created with Sketch.</desc>
  <defs/>
  <g id="Page-1" stroke="none" stroke-width="1" fill="none" fill-rule="evenodd" stroke-linecap="round" stroke-linejoin="round">
    <g id="What-We-Do" transform="translate(-1072.000000, -990.000000)" stroke="#162C47" stroke-width="2">
      <g id="Page-1" transform="translate(1073.000000, 991.000000)">
        <path d="M12.856,32.706 L8.816,32.706 L7.252,32.706 C3.128,32.416 0,28.862 0,24.739 C0,20.046 3.419,16.639 7.822,16.639 C8.67,16.639 9.531,16.783 10.38,17.062 C10.671,17.208 10.951,17.062 11.23,16.918 C11.375,16.783 11.666,16.493 11.666,16.214 C12.66,10.381 17.632,6.112 23.465,6.112 C25.309,6.112 27.153,6.537 28.862,7.397 C29.287,7.677 30.002,7.543 30.282,6.973 C32.986,2.559 37.824,0 42.942,0 C51.188,0 57.87,6.683 57.87,14.929 C57.87,15.152 57.847,18.355 57.825,21.294" id="Stroke-1"/>
        <path d="M63.968,29.721 C63.968,30.037 64.284,30.354 64.601,30.512 C64.918,30.67 65.235,30.67 65.551,30.67 C66.342,30.354 67.134,30.354 67.767,30.354 C71.724,30.354 74.89,33.52 74.89,37.477 C74.89,41.117 72.04,44.441 68.241,44.758 L66.818,44.758 C66.818,44.758 23.288,44.916 22.655,44.916 C17.274,44.916 13,40.642 13,35.261 C13,30.67 16.323,26.555 20.914,25.763 C21.389,25.605 21.705,25.288 21.864,24.972 C23.447,19.116 28.987,15 35.001,15 C39.75,15 44.024,17.374 46.557,21.49 C46.873,21.964 47.506,22.122 48.14,21.964 C49.722,21.173 51.305,20.857 53.046,20.857 C58.428,20.382 63.019,24.339 63.968,29.721 Z" id="Stroke-3"/>
      </g>
    </g>
  </g>
</svg>
