<?xml version="1.0"?>
<svg xmlns="http://www.w3.org/2000/svg" viewBox="0 0 95.03 21.95">
  <defs>
    <style>.cls-1,.cls-2{fill-rule:evenodd;}.cls-2{fill:#cc2a2e;}</style>
  </defs>
  <title>couchbase</title>
  <g id="Layer_2">
    <g id="Layer_1-2">
      <path d="M32.81,16.06a4.81,4.81,0,0,1-5-5.1,4.83,4.83,0,0,1,5.07-5.07,5.11,5.11,0,0,1,2.95.78l-.95,1.57a3.57,3.57,0,0,0-2-.57c-1.8,0-2.76,1.44-2.76,3.23s.92,3.37,2.79,3.37a3.46,3.46,0,0,0,2.2-.75L35.92,15a5,5,0,0,1-3.11,1"/>
      <path d="M39.92,10c-1.08,0-1.42.91-1.42,2.23s.42,2.28,1.49,2.28,1.46-.89,1.46-2.21S41,10,39.92,10m0,6a3.49,3.49,0,0,1-3.61-3.74,3.62,3.62,0,1,1,7.24-.07A3.56,3.56,0,0,1,40,16.06"/>
      <path d="M46.76,8.69v4.62c0,.71.25,1.06.94,1.06a2.1,2.1,0,0,0,1.42-.86V8.69h2v5.08a10.68,10.68,0,0,0,.2,2.12h-2a5.79,5.79,0,0,1-.14-1,2.87,2.87,0,0,1-2.31,1.13c-1.58,0-2.15-1-2.15-2.33v-5Z"/>
      <path d="M56.1,16.06a3.51,3.51,0,0,1-3.74-3.76,3.55,3.55,0,0,1,3.8-3.78,3.83,3.83,0,0,1,2.19.57l-.64,1.38a2.68,2.68,0,0,0-1.49-.41c-1.12,0-1.72.87-1.72,2.18s.57,2.26,1.77,2.26a2.79,2.79,0,0,0,1.52-.43l.62,1.35a3.86,3.86,0,0,1-2.31.64"/>
      <path d="M63.81,15.89V11.27c0-.71-.24-1.06-.92-1.06a2,2,0,0,0-1.43.87v4.81h-2V5.27h2V9.55a2.94,2.94,0,0,1,2.22-1c1.58,0,2.16,1,2.16,2.34v5Z"/>
      <path d="M69.5,14.32a2.65,2.65,0,0,0,1,.16c1,0,1.68-.77,1.68-2.24s-.45-2.12-1.47-2.12a1.68,1.68,0,0,0-1.18.53Zm0-9v4a2.53,2.53,0,0,1,1.75-.74c1.78,0,3,1.22,3,3.72a3.58,3.58,0,0,1-3.82,3.82,7,7,0,0,1-3-.57V5.27Z"/>
      <path class="cls-1" d="M79.09,12.72h-.25c-1.11,0-1.88.33-1.88,1.14a.75.75,0,0,0,.85.74A1.7,1.7,0,0,0,79.09,14Zm.22,3.17a4.29,4.29,0,0,1-.12-.77,2.58,2.58,0,0,1-2,.94A2,2,0,0,1,75,14c0-1.87,1.91-2.56,3.82-2.56h.25v-.39c0-.6-.25-1-1.15-1a3,3,0,0,0-1.81.67l-.88-1.23a4.32,4.32,0,0,1,2.93-1c2,0,2.92.76,2.92,2.68v2.52a10.37,10.37,0,0,0,.2,2.17Z"/>
      <path class="cls-1" d="M84.73,16.06a4.6,4.6,0,0,1-2.56-.67L82.85,14a3.33,3.33,0,0,0,1.76.59c.74,0,1.15-.21,1.15-.62s-.81-.6-1.82-1.09a2.21,2.21,0,0,1-1.57-2.11c0-1.36,1.07-2.22,2.7-2.22a4.38,4.38,0,0,1,2.31.57l-.7,1.38A3,3,0,0,0,85.15,10c-.68,0-1,.24-1,.61s.66.59,1.48.92c1.13.46,1.94,1,1.94,2.2,0,1.52-1.09,2.31-2.87,2.31"/>
      <path class="cls-1" d="M93.05,11.42c0-.8-.33-1.45-1.19-1.45s-1.26.52-1.39,1.45Zm-.77,3.14a3.64,3.64,0,0,0,1.86-.49l.64,1.3a4.79,4.79,0,0,1-2.69.69,3.5,3.5,0,0,1-3.77-3.8,3.51,3.51,0,0,1,3.57-3.74c2.25,0,3.34,1.57,3.1,4.26H90.48A1.71,1.71,0,0,0,92.28,14.56Z"/>
      <path class="cls-2" d="M10.93,0A11,11,0,1,0,21.85,11,10.95,10.95,0,0,0,10.93,0Zm7.38,12.9a1.33,1.33,0,0,1-1.12,1.38,47,47,0,0,1-6.26.36,46.81,46.81,0,0,1-6.26-.36A1.33,1.33,0,0,1,3.54,12.9V8.61A1.42,1.42,0,0,1,4.67,7.24a13.94,13.94,0,0,1,2-.13.48.48,0,0,1,.47.52v3c1.33,0,2.49-.08,3.83-.08s2.49.07,3.82.08v-3a.48.48,0,0,1,.47-.52,14.22,14.22,0,0,1,2,.13,1.42,1.42,0,0,1,1.12,1.37Z"/>
    </g>
  </g>
</svg>
