<?xml version="1.0"?>
<svg xmlns="http://www.w3.org/2000/svg" viewBox="0 0 81.29 21.55">
  <defs>
    <style>.cls-1{fill:#7ec6e5;}.cls-2{fill:#f6966a;}.cls-3{fill:#e5c5aa;}.cls-4{fill:#42afdd;}.cls-5{fill:#e5278e;}.cls-6{fill:#f05d62;}.cls-7{fill:#443643;}</style>
  </defs>
  <title>exaptive</title>
  <g id="Layer_2">
    <g id="Layer_1-2">
      <path class="cls-1" d="M17.4,7l2.73-1.6A10.78,10.78,0,0,0,10.77,0V3.14A7.58,7.58,0,0,1,17.4,7Z"/>
      <path class="cls-2" d="M3.14,10.77A7.7,7.7,0,0,1,4.19,7L1.42,5.39a10.92,10.92,0,0,0,0,10.77l2.72-1.6A7.85,7.85,0,0,1,3.14,10.77Z"/>
      <path class="cls-3" d="M10.77,3.14V0A10.91,10.91,0,0,0,1.42,5.39L4.19,7A7.57,7.57,0,0,1,10.77,3.14Z"/>
      <path class="cls-4" d="M20.13,5.39,17.4,7a7.52,7.52,0,0,1,1,3.78,7.24,7.24,0,0,1-1,3.79l2.73,1.6a11.16,11.16,0,0,0,1.42-5.39A10.52,10.52,0,0,0,20.13,5.39Z"/>
      <path class="cls-5" d="M10.77,18.41v3.14a10.93,10.93,0,0,0,9.36-5.39l-2.73-1.6A7.58,7.58,0,0,1,10.77,18.41Z"/>
      <path class="cls-6" d="M4.14,14.56l-2.72,1.6a10.78,10.78,0,0,0,9.35,5.39V18.41A7.86,7.86,0,0,1,4.14,14.56Z"/>
      <polygon class="cls-6" points="7.4 12.73 4.26 14.56 10.77 18.35 10.77 14.68 7.4 12.73"/>
      <polygon class="cls-2" points="7.4 8.82 4.26 6.99 4.26 14.56 7.4 12.73 7.4 8.82"/>
      <polygon class="cls-5" points="10.77 14.68 10.77 18.35 17.34 14.56 14.15 12.73 10.77 14.68"/>
      <polygon class="cls-4" points="14.15 12.73 17.34 14.56 17.34 6.99 14.15 8.82 14.15 12.73"/>
      <polygon class="cls-1" points="14.15 8.82 17.34 6.99 10.77 3.26 10.77 6.87 14.15 8.82"/>
      <polygon class="cls-3" points="4.26 6.99 7.4 8.82 7.4 8.82 10.77 6.87 10.77 3.26 4.26 6.99"/>
      <path class="cls-7" d="M32.3,10.85h-5a2,2,0,0,0,2.15,2,4.21,4.21,0,0,0,2-.54L32,13.43a6.09,6.09,0,0,1-2.68.75c-2.26,0-3.55-1.61-3.55-3.87s1.4-4,3.44-4S32.3,7.73,32.3,10.1ZM29.19,7.73c-1.08,0-1.72.75-1.94,1.94h3.44A1.6,1.6,0,0,0,29.19,7.73Z"/>
      <path class="cls-7" d="M38.53,14.07l-1.82-2.68-1.83,2.68H33.06l2.68-3.76L33.16,6.66H35.1L36.82,9l1.61-2.36h1.72l-2.48,3.65,2.69,3.76Z"/>
      <path class="cls-7" d="M45.84,14.07v-.54a3.7,3.7,0,0,1-2.15.65,2.25,2.25,0,0,1-2.36-2.36c0-2.48,3.11-2.58,4.19-2.58h.32V8.91c0-.43,0-.75-.22-1s-.53-.32-1.18-.32a6.38,6.38,0,0,0-2,.53l-.54-1.07a4.5,4.5,0,0,1,2.69-.75,2.88,2.88,0,0,1,2.26.75,3,3,0,0,1,.53,2.25v4.52h-1.5Zm-.22-3.65H45.3a3.17,3.17,0,0,0-2.25.54,1,1,0,0,0-.33.75c0,.75.54,1.07,1.29,1.07a2.6,2.6,0,0,0,1.61-.54Z"/>
      <path class="cls-7" d="M52.28,14.18a3.74,3.74,0,0,1-1.5-.32v3.43H49.17V6.66h1.5V7.2a2.8,2.8,0,0,1,2-.76C54.65,6.44,56,8,56,10.2,55.83,12.57,54.22,14.18,52.28,14.18Zm-.1-6.34a2.25,2.25,0,0,0-1.51.54v4.08a1.88,1.88,0,0,0,1.29.43c1.29,0,2.15-1,2.15-2.58S53.25,7.84,52.18,7.84Z"/>
      <path class="cls-7" d="M60.45,14.18a2.93,2.93,0,0,1-1.83-.65,3,3,0,0,1-.53-2.25V8H56.8V6.55h1.29v-2H59.7v2h2.15V8H59.7v3.44c0,.64,0,1.28,1,1.28a3.27,3.27,0,0,0,1-.21l.43,1.18C62.06,13.86,61.42,14.18,60.45,14.18Z"/>
      <path class="cls-7" d="M64.53,5.48a1,1,0,1,1,1-1A1,1,0,0,1,64.53,5.48Zm-.86,8.59V6.66h1.61v7.41Z"/>
      <path class="cls-7" d="M71,14.07H69.37l-2.8-7.41h1.72l2,5.58,1.94-5.58h1.61Z"/>
      <path class="cls-7" d="M81.18,10.85H76.24a2,2,0,0,0,2.15,2,4.25,4.25,0,0,0,2-.54L81,13.43a6.1,6.1,0,0,1-2.69.75c-2.25,0-3.54-1.61-3.54-3.87s1.39-4,3.43-4,3.12,1.39,3.12,3.76A3.73,3.73,0,0,1,81.18,10.85ZM78.07,7.73c-1.08,0-1.72.75-1.94,1.94h3.44A1.55,1.55,0,0,0,78.07,7.73Z"/>
    </g>
  </g>
</svg>
