<?xml version="1.0" encoding="UTF-8"?>
<svg xmlns="http://www.w3.org/2000/svg" xmlns:xlink="http://www.w3.org/1999/xlink" width="60px" height="50px" viewBox="0 0 53 50" version="1.1">
  <!-- Generator: Sketch 50.2 (55047) - http://www.bohemiancoding.com/sketch -->
  <title>Page 1</title>
  <desc>Created with Sketch.</desc>
  <defs/>
  <g id="Page-1" stroke="none" stroke-width="1" fill="none" fill-rule="evenodd" stroke-linecap="round" stroke-linejoin="round">
    <g id="What-We-Do" transform="translate(-1084.000000, -805.000000)" stroke="#162C47" stroke-width="2">
      <g id="Page-1" transform="translate(1085.000000, 806.000000)">
        <path d="M0,10.931 L0,4.179 C0,1.871 1.871,0 4.179,0 L10.931,0" id="Stroke-1"/>
        <path d="M50.931,10.931 L50.931,4.179 C50.931,1.871 49.06,0 46.752,0 L40,0" id="Stroke-3"/>
        <path d="M50.931,37 L50.931,43.752 C50.931,46.06 49.06,47.931 46.752,47.931 L40,47.931" id="Stroke-5"/>
        <path d="M0,37 L0,43.752 C0,46.06 1.871,47.931 4.179,47.931 L10.931,47.931" id="Stroke-7"/>
        <path d="M42.46,39.661 L42.46,36.637 C42.46,35.109 41.594,32.944 40.363,32.01 C37.765,30.072 34.597,28.728 31.314,27.998 L31.314,25.742 C34.619,23.827 36.876,20.271 36.876,16.146 C36.876,9.991 31.884,5 25.73,5 C19.576,5 14.584,9.991 14.584,16.146 C14.584,20.271 16.841,23.827 20.146,25.742 L20.146,27.998 C16.863,28.728 13.695,30.072 11.097,32.01 C9.866,32.944 9,35.109 9,36.637 L9,39.661 L42.46,39.661 Z" id="Stroke-9"/>
      </g>
    </g>
  </g>
</svg>
