<?xml version="1.0" encoding="UTF-8"?>
<svg xmlns="http://www.w3.org/2000/svg" xmlns:xlink="http://www.w3.org/1999/xlink" width="60px" height="54px" viewBox="0 0 47 54" version="1.1">
  <!-- Generator: Sketch 50.2 (55047) - http://www.bohemiancoding.com/sketch -->
  <title>Page 1</title>
  <desc>Created with Sketch.</desc>
  <defs/>
  <g id="Page-1" stroke="none" stroke-width="1" fill="none" fill-rule="evenodd" stroke-linecap="round" stroke-linejoin="round">
    <g id="What-We-Do" transform="translate(-697.000000, -803.000000)" stroke="#162C47" stroke-width="2">
      <g id="Page-1" transform="translate(698.000000, 804.000000)">
        <g id="Group-9" transform="translate(0.000000, 0.175200)">
          <polygon id="Stroke-3" points="44.318 38.383 22.159 51.176 0 38.383 0 12.793 22.159 -4.54747351e-13 44.318 12.793"/>
          <polyline id="Stroke-5" points="0 37.793 22.159 25 44.318 37.793"/>
          <path d="M22,24.898 L22,-4.54747351e-13" id="Stroke-7"/>
        </g>
        <path d="M8,9 L8,34.261" id="Stroke-10"/>
        <g id="Group-15" transform="translate(0.000000, 7.175200)">
          <path d="M0,12.792 L22.159,0" id="Stroke-11"/>
          <path d="M0,21.793 L22.159,9" id="Stroke-13"/>
        </g>
        <path d="M15,5 L15,30.262" id="Stroke-16"/>
        <path d="M15,46.631 L36.878,34" id="Stroke-17"/>
        <path d="M30.159,46.794 L8,34" id="Stroke-18"/>
        <path d="M37.158,42.794 L15,30" id="Stroke-19"/>
        <path d="M8,42.631 L29.878,30" id="Stroke-20"/>
        <path d="M37,9 L37,34.261" id="Stroke-21"/>
        <g id="Group-26" transform="translate(22.000000, 7.175200)">
          <path d="M22.159,12.792 L0,0" id="Stroke-22"/>
          <path d="M22.159,21.793 L0,9" id="Stroke-24"/>
        </g>
        <path d="M30,5 L30,30.262" id="Stroke-27"/>
      </g>
    </g>
  </g>
</svg>
