<?xml version="1.0" encoding="UTF-8"?>
<svg xmlns="http://www.w3.org/2000/svg" xmlns:xlink="http://www.w3.org/1999/xlink" width="60px" height="54px" viewBox="0 0 49 54" version="1.1">
  <!-- Generator: Sketch 50.2 (55047) - http://www.bohemiancoding.com/sketch -->
  <title>Page 1</title>
  <desc>Created with Sketch.</desc>
  <defs/>
  <g id="Page-1" stroke="none" stroke-width="1" fill="none" fill-rule="evenodd" stroke-linecap="round" stroke-linejoin="round">
    <g id="What-We-Do" transform="translate(-306.000000, -987.000000)" stroke="#162C47" stroke-width="2">
      <g id="Page-1" transform="translate(307.000000, 988.000000)">
        <path d="M44.808,3.861 C43.769,3.861 42.878,3.019 42.878,1.93 C42.878,0.841 43.719,0 44.808,0 C45.898,0 46.739,0.841 46.739,1.93 C46.739,3.019 45.848,3.861 44.808,3.861 Z M25.75,31.529 C21.23,31.529 17.645,27.866 17.645,23.423 C17.645,18.903 21.308,15.317 25.75,15.317 C30.193,15.317 33.856,18.98 33.856,23.423 C33.934,27.866 30.271,31.529 25.75,31.529 Z M22.534,51.219 C20.969,51.219 19.629,49.954 19.629,48.315 C19.629,46.752 20.895,45.411 22.534,45.411 C24.171,45.411 25.438,46.677 25.438,48.315 C25.363,49.88 24.097,51.219 22.534,51.219 Z M1.931,44.524 C0.892,44.524 6.31088724e-30,43.682 6.31088724e-30,42.593 C6.31088724e-30,41.554 0.842,40.663 1.931,40.663 C3.02,40.663 3.862,41.505 3.862,42.593 C3.812,43.633 2.971,44.524 1.931,44.524 Z M44.759,33.531 C45.798,33.531 46.69,34.373 46.69,35.462 C46.69,36.55 45.848,37.392 44.759,37.392 C43.67,37.392 42.829,36.55 42.829,35.462 C42.829,34.373 43.67,33.531 44.759,33.531 Z M4.278,14.681 C2.199,14.681 0.416,12.999 0.416,10.821 C0.416,8.642 2.1,6.96 4.278,6.96 C6.455,6.96 8.139,8.642 8.139,10.821 C8.139,12.999 6.455,14.681 4.278,14.681 Z" id="Stroke-1"/>
        <polyline id="Stroke-3" points="18.34 18.95 8.01 13 8 13"/>
        <path d="M43.28,4 L31,17.12" id="Stroke-5"/>
        <polyline id="Stroke-7" points="4 40.97 4.01 40.97 18.94 29"/>
        <path d="M24.811,32 L23,45" id="Stroke-9"/>
        <path d="M43.27,34.05 L33,28" id="Stroke-11"/>
      </g>
    </g>
  </g>
</svg>
