<?xml version="1.0" encoding="UTF-8"?>
<svg xmlns="http://www.w3.org/2000/svg" xmlns:xlink="http://www.w3.org/1999/xlink" width="60px" height="53px" viewBox="0 0 53 53" version="1.1">
  <!-- Generator: Sketch 50.2 (55047) - http://www.bohemiancoding.com/sketch -->
  <title>Page 1</title>
  <desc>Created with Sketch.</desc>
  <defs/>
  <g id="Page-1" stroke="none" stroke-width="1" fill="none" fill-rule="evenodd" stroke-linecap="round" stroke-linejoin="round">
    <g id="What-We-Do" transform="translate(-694.000000, -620.000000)" stroke="#162C47" stroke-width="2">
      <g id="Page-1" transform="translate(695.000000, 621.000000)">
        <path d="M45.823,50.916 L5.091,50.916 C2.291,50.916 5.68434189e-14,48.624 5.68434189e-14,45.824 L5.68434189e-14,5.092 C5.68434189e-14,2.292 2.291,0 5.091,0 L45.823,0 C48.624,0 50.915,2.292 50.915,5.092 L50.915,45.824 C50.915,48.624 48.624,50.916 45.823,50.916 Z" id="Stroke-1"/>
        <path d="M19.578,30.426 L6.849,30.426 C6.382,30.426 6,30.044 6,29.577 L6,16.849 C6,16.382 6.382,16 6.849,16 L19.578,16 C20.044,16 20.427,16.382 20.427,16.849 L20.427,29.577 C20.427,30.044 20.044,30.426 19.578,30.426 Z" id="Stroke-3"/>
        <path d="M43.832,21.516 L25.775,21.516 C25.349,21.516 25,21.134 25,20.667 L25,16.849 C25,16.382 25.349,16 25.775,16 L43.832,16 C44.258,16 44.606,16.382 44.606,16.849 L44.606,20.667 C44.606,21.134 44.258,21.516 43.832,21.516 Z" id="Stroke-5"/>
        <path d="M44.606,26 L25,26" id="Stroke-7"/>
        <path d="M44.606,30 L25,30" id="Stroke-9"/>
        <polyline id="Stroke-11" points="38 41.667 38 37 42.667 37"/>
        <path d="M44.516,43.559 L39,38" id="Stroke-13"/>
        <path d="M6,35 L33.155,35" id="Stroke-15"/>
        <path d="M6,40 L33.155,40" id="Stroke-17"/>
        <path d="M6,45 L33.155,45" id="Stroke-19"/>
        <path d="M5.68434189e-14,11 L50.915,11" id="Stroke-21"/>
      </g>
    </g>
  </g>
</svg>
