<?xml version="1.0" encoding="UTF-8"?>
<svg xmlns="http://www.w3.org/2000/svg" xmlns:xlink="http://www.w3.org/1999/xlink" width="60px" height="54px" viewBox="0 0 60 54" version="1.1">
  <!-- Generator: Sketch 50.2 (55047) - http://www.bohemiancoding.com/sketch -->
  <title>Page 1</title>
  <desc>Created with Sketch.</desc>
  <defs/>
  <g id="Page-1" stroke="none" stroke-width="1" fill="none" fill-rule="evenodd" stroke-linecap="round" stroke-linejoin="round">
    <g id="What-We-Do" transform="translate(-300.000000, -620.000000)" stroke="#162C47" stroke-width="2">
      <g id="Page-1" transform="translate(301.000000, 621.000000)">
        <path d="M23,5.983 C23,2.682 25.68,0 28.984,0 C32.288,0 34.969,2.681 34.969,5.983 C34.969,9.291 32.289,11.969 28.984,11.969 C25.68,11.969 23,9.291 23,5.983 Z" id="Stroke-1"/>
        <path d="M23,5.983 C23,2.682 25.68,0 28.984,0 C32.288,0 34.969,2.681 34.969,5.983 C34.969,9.291 32.289,11.969 28.984,11.969 C25.68,11.969 23,9.291 23,5.983 Z" id="Stroke-3"/>
        <polyline id="Stroke-5" points="32.315 28 29.032 31.282 25.75 28"/>
        <path d="M29,22 L29,30.652" id="Stroke-7"/>
        <path d="M29,12 L29,17.781" id="Stroke-9"/>
        <path d="M0,46.706 C0,44.109 2.107,42 4.706,42 C7.304,42 9.412,44.109 9.412,46.706 C9.412,49.306 7.304,51.413 4.706,51.413 C2.107,51.413 0,49.306 0,46.706 Z" id="Stroke-11"/>
        <path d="M16,46.706 C16,44.109 18.107,42 20.706,42 C23.304,42 25.412,44.109 25.412,46.706 C25.412,49.306 23.304,51.413 20.706,51.413 C18.107,51.413 16,49.306 16,46.706 Z" id="Stroke-13"/>
        <path d="M32,46.706 C32,44.109 34.107,42 36.706,42 C39.304,42 41.412,44.109 41.412,46.706 C41.412,49.306 39.304,51.413 36.706,51.413 C34.107,51.413 32,49.306 32,46.706 Z" id="Stroke-15"/>
        <path d="M48,46.706 C48,44.109 50.107,42 52.706,42 C55.304,42 57.412,44.109 57.412,46.706 C57.412,49.306 55.305,51.413 52.706,51.413 C50.107,51.413 48,49.306 48,46.706 Z" id="Stroke-17"/>
        <path d="M5,42.097 L5,36.735 C5,35.778 5.777,35 6.734,35 L50.659,35 C51.616,35 52.392,35.778 52.392,36.735 L52.392,42.097" id="Stroke-19"/>
        <path d="M21,42.097 L21,36.735 C21,35.778 21.777,35 22.734,35 L35.357,35 C36.314,35 37.091,35.778 37.091,36.735 L37.091,42.097" id="Stroke-21"/>
      </g>
    </g>
  </g>
</svg>
